PathFileType	4	(X/Y/Z)	F:\MotionCapture\20160217\3\Generated_files\EMG_test05-Dynamic.trc
DataRate	CameraRate	NumFrames	NumMarkers	Units	OrigDataRate	OrigDataStartFrame	OrigNumFrames
120.00	120.00	       6	39	mm	120.00	179	       714
Frame#	Time	Top.Head			Front.Head			Rear.Head			R.Shoulder			R.Offset			R.Elbow			R.Wrist			L.Shoulder			L.Elbow			L.Wrist			R.ASIS			L.ASIS			V.Sacral			R.Thigh			R.Knee			R.Shank			R.Ankle			R.Heel			R.Toe			L.Thigh			L.Knee			L.Shank			L.Ankle			L.Heel			L.Toe			R1			R2			R3			R4			R5			R6			R7			L1			L2			L3			L4			L5			L6			L7			V_Mid_ASIS			V_Pelvis_Origin			V_R.Hip_JC			V_L.Hip_JC			V_R.Knee_JC			V_L.Knee_JC			V_R.Ankle_JC			V_L.Ankle_JC			V_Mid_Hip			V_Mid_Shoulder			V_R.Hand			V_L.Hand			V_R.Toe_Offset_Static			V_L.Toe_Offset_Static			V_R.Toe_Offset			V_L.Toe_Offset			
		X1	Y1	Z1	X2	Y2	Z2	X3	Y3	Z3	X4	Y4	Z4	X5	Y5	Z5	X6	Y6	Z6	X7	Y7	Z7	X8	Y8	Z8	X9	Y9	Z9	X10	Y10	Z10	X11	Y11	Z11	X12	Y12	Z12	X13	Y13	Z13	X14	Y14	Z14	X15	Y15	Z15	X16	Y16	Z16	X17	Y17	Z17	X18	Y18	Z18	X19	Y19	Z19	X20	Y20	Z20	X21	Y21	Z21	X22	Y22	Z22	X23	Y23	Z23	X24	Y24	Z24	X25	Y25	Z25	X26	Y26	Z26	X27	Y27	Z27	X28	Y28	Z28	X29	Y29	Z29	X30	Y30	Z30	X31	Y31	Z31	X32	Y32	Z32	X33	Y33	Z33	X34	Y34	Z34	X35	Y35	Z35	X36	Y36	Z36	X37	Y37	Z37	X38	Y38	Z38	X39	Y39	Z39	

179	1.483	-2354.48047	130.78879	1715.27222	-2230.55322	128.49226	1648.90503	-2451.34790	138.02100	1631.05103	-2380.04712	-68.97018	1406.06726	-2506.02954	211.28703	1267.43201	-2470.30811	-163.00957	1093.93066	-2417.29614	-179.70091	835.72150	-2339.93066	338.20828	1409.91846	-2324.75146	446.94162	1087.80969	-2130.00220	399.31412	921.94873	-2308.13525	-3.52440	937.65948	-2314.22778	282.73105	918.35925	-2536.67261	134.40202	931.38135	-2217.64795	46.43437	590.65814	-2257.55615	4.56885	471.21127	-2239.17114	85.05058	238.74136	-2276.21045	20.83941	67.29828	-2341.82617	83.45822	38.11051	-2132.45264	36.36963	42.12806	-2272.24365	267.53784	593.57629	-2384.66797	322.89395	439.58237	-2469.40771	247.56296	323.64761	-2732.01489	285.22617	226.23389	-2753.57300	216.08266	271.21710				-2086.02612	54.87673	41.38279	-2125.27881	72.37154	46.87179	-2223.37793	112.28461	55.55632	-2296.26392	114.73887	39.10193	-2312.63867	40.25664	38.06093	-2238.75000	11.24396	33.41005	-2172.48340	-6.18760	35.72068	-2700.26855	275.15359	45.10759	-2701.00708	257.11276	73.42929	-2705.66992	206.26747	157.51901	-2733.36597	192.19699	232.43161	-2759.50977	258.25470	249.57265	-2756.47681	296.85864	177.10490	-2744.40112	312.04691	117.74014																																																	-2695.81299	297.74332	130.28146	-2675.78467	308.75464	97.89860	-2105.77148	46.39616	42.32429	
180	1.492	-2342.85767	129.41599	1717.19580	-2219.20605	126.84571	1650.63733	-2440.46704	136.19989	1633.47827	-2368.31616	-70.59315	1408.10498	-2495.48560	209.44756	1269.77002	-2455.79492	-165.09830	1095.22778	-2397.65747	-179.43852	837.70837	-2330.30444	337.00290	1412.18140	-2319.29785	446.18561	1090.08105	-2129.10034	402.34537	918.58923	-2298.98706	-4.90771	939.54266	-2303.66650	281.24518	920.45276	-2526.72192	133.48305	933.86682	-2212.92407	45.36045	590.11053	-2255.35889	3.51273	470.88702	-2237.73218	83.75686	238.56998	-2276.52124	20.64940	67.15379	-2341.99438	83.35500	38.09257	-2132.70508	36.21170	42.29523	-2254.95459	265.59586	598.34778	-2362.29712	322.37778	442.63461	-2445.76343	244.93167	326.34048	-2709.73022	282.18542	230.48911	-2731.86890	211.69748	273.55667	-2691.58374	290.86563	90.15028	-2086.16943	54.77356	41.32551	-2125.44775	72.13917	46.93264	-2223.66553	112.10938	55.75082	-2296.46118	114.42949	39.34229	-2312.69360	40.26415	37.87484	-2238.80859	10.96835	33.29366	-2172.60474	-6.52262	35.67380	-2676.55908	276.60046	48.86841	-2676.07153	257.86914	77.33623	-2682.63306	204.73201	160.24997	-2711.18237	188.74013	234.50623	-2737.05249	253.79739	252.67491	-2732.52246	293.77124	182.32716	-2720.00952	312.20090	122.81255																																																	-2675.87939	296.79843	135.09982	-2701.39014	337.99139	145.42365	
181	1.500	-2331.58691	128.19476	1719.15430	-2208.43726	125.70417	1652.98828	-2429.54370	134.73029	1635.72961	-2356.36548	-71.18451	1409.99829	-2485.21899	207.16542	1271.90015	-2441.48413	-167.43915	1096.36365	-2378.29858	-179.77289	839.99414	-2321.11792	336.45953	1414.50745	-2314.05640	446.31671	1092.60547	-2128.31128	406.23148	915.03906	-2289.39478	-6.22855	941.05347	-2292.93555	280.12823	922.42786	-2516.76563	132.73682	936.38348	-2208.39111	44.08284	588.75049	-2252.49951	2.57180	470.94333	-2236.43433	82.83408	238.68451	-2276.78979	20.48796	66.99976	-2342.28809	83.16312	38.08913	-2132.91797	36.12303	42.25692	-2237.09399	264.73489	602.69696	-2340.49536	321.50378	445.76559	-2423.86304	244.15601	330.47971	-2686.17407	278.79300	232.46030	-2710.47754	208.09607	274.48312	-2667.85913	290.33804	92.66748	-2086.38794	54.67484	41.27191	-2125.68970	72.04134	46.97725	-2223.94678	111.79168	55.95041	-2296.77856	114.05429	39.65417	-2313.01123	40.21077	37.76963	-2238.84521	10.79876	33.06108	-2172.71313	-6.73267	35.57299	-2649.79785	277.69827	51.12517	-2651.15601	258.15503	79.39841	-2658.34912	202.34619	162.53488	-2689.32715	185.22160	235.79970	-2714.56689	250.31007	254.00444	-2708.11548	293.21222	185.17978	-2693.01611	310.97934	126.12489	
182	1.508	-2320.37451	126.69618	1720.97070	-2197.98828	125.18651	1653.88049	-2418.71118	133.40056	1637.91003	-2344.87134	-72.86118	1411.87280	-2474.96729	205.18423	1273.94202	-2427.40356	-169.97891	1097.50659	-2358.41602	-180.00787	842.20551	-2311.46289	335.58734	1416.37561	-2308.53296	445.73486	1094.86572	-2129.50684	409.84558	911.25208	-2279.92212	-7.73263	942.12610	-2282.76685	278.88400	924.77155	-2506.80811	131.93486	938.86877	-2203.66650	42.87438	588.18719	-2250.38647	1.89484	470.84375	-2235.71899	82.45327	238.71352	-2276.93262	20.35684	66.84325	-2342.61230	82.95148	38.09800	-2133.11792	36.06413	42.16833	-2219.57202	262.86230	608.02606	-2318.84204	320.68643	449.22168	-2400.71997	242.21809	333.19476	-2662.82422	276.20215	234.17949	-2688.94556	204.75993	273.89621	-2637.69189	288.29944	95.99310	-2087.85913	53.67944	43.69439	-2126.03467	72.01858	46.97744	-2223.09424	109.46550	55.65464	-2297.02344	113.86447	39.88195	-2313.43579	39.92948	37.75974	-2239.00977	10.58013	32.92033	-2172.77197	-6.84530	35.44160	-2620.99170	277.91251	52.41690	-2621.15625	257.68512	81.59499	-2633.26270	200.32196	163.99080	-2666.51636	182.41057	235.62564	-2692.05103	247.99800	254.44482	-2681.67920	290.48459	186.20854	-2664.63281	309.80273	127.54659																																																	-2727.06860	-162.69412	554.31543	
183	1.517	-2309.54297	125.41689	1723.19934	-2186.38916	123.70401	1656.23779	-2407.76172	132.02148	1640.01086	-2333.51318	-73.53334	1413.40991	-2464.95044	203.11349	1276.11011	-2412.64648	-171.89568	1098.68018	-2338.25317	-180.24800	844.77423	-2302.33423	335.23828	1418.65247	-2303.61572	445.93347	1097.32703	-2128.65063	413.45718	907.94727	-2270.25439	-9.13255	943.41406	-2272.67358	277.59491	927.57666	-2496.85669	131.24451	941.22070	-2198.94409	41.25129	587.18097	-2247.07959	0.85350	470.72549	-2235.38013	82.03493	238.82591	-2276.92944	20.26085	66.69914	-2342.71802	82.84154	38.10736	-2133.18750	36.02427	42.13164	-2201.94360	261.90982	613.73578	-2297.45020	319.90512	453.13614	-2377.57764	240.78241	336.51361	-2638.58569	274.03763	233.96976	-2667.50562	202.02608	272.35461	-2607.25708	287.68423	97.26595	-2088.07080	53.67512	43.79640	-2126.23608	71.99493	47.01117	-2223.33179	109.12263	56.02504	-2297.16919	114.08097	40.59650	-2313.76074	39.79217	37.66519	-2239.09790	10.46011	32.76848	-2172.80908	-6.95569	35.38625	-2589.40063	277.34521	53.70190	-2593.23608	256.27414	82.39001	-2607.57178	197.72992	164.09500	-2643.85132	179.74261	235.25568	-2668.50293	244.92552	252.70027	-2655.17944	288.46338	185.66681	-2634.65161	308.78821	128.80238	
184	1.525	-2298.64795	124.16662	1724.82971	-2175.84888	122.36157	1657.14221	-2396.72266	131.27776	1641.85547	-2322.00122	-74.42789	1415.00598	-2454.66919	201.20183	1277.89807	-2398.76123	-174.49431	1099.73621	-2318.07251	-180.19633	847.67621	-2292.77783	334.16452	1420.14502	-2298.79541	445.77017	1099.43787	-2129.32324	417.31616	904.70612	-2260.90259	-10.55910	944.50677	-2262.97290	276.43768	929.89270	-2486.97681	130.35927	943.56909	-2194.24512	39.40014	586.00867	-2244.87573	0.29519	470.30991	-2234.87598	82.00419	238.71553	-2276.95874	20.16737	66.62343	-2342.87012	82.66261	38.16027	-2133.22119	36.01482	42.09056	-2185.27930	260.46884	618.98175	-2275.90674	318.41046	456.40720	-2354.27734	239.33659	338.79141	-2614.35645	270.77582	234.32674	-2645.05640	199.77699	269.47025				-2087.78979	53.98734	43.25698	-2126.15308	72.23580	46.87043	-2223.39673	108.97937	56.14727	-2297.23535	113.63439	40.14289	-2313.93481	39.32972	37.98978	-2239.22095	10.36412	32.64422	-2172.83276	-6.98310	35.31242	-2556.19116	275.00845	54.00544	-2561.27930	254.71800	83.43877	-2583.23755	194.18042	163.18828	-2619.69312	177.78471	232.60318	-2644.90259	243.27032	250.16336	-2628.34570	286.36166	183.87679	-2604.74561	306.71735	127.80463																																																	-2519.44653	257.76172	114.44514	-2651.54639	253.68851	69.67657	-2536.71899	87.74909	1493.93152	
